# xmcd
#
# Track frame offsets:
#	150
#	16720
#	31387
#	47722
#	60700
#	75732
#	89200
#	104107
#	116610
#	133135
#	147780
#	164207
#	177245
#	192315
#	205787
#	220705
#
# Disc length: 3110 seconds
#
# Revision: 1
# Processed by: cddbd v1.5.1PL2 Copyright (c) Steve Scherf et al.
# Submitted via: audiograbber 1.83.01
#
DISCID=ee0c2410
DTITLE=Various Artist - Sc2060
DYEAR=1900
DGENRE=Oldies
TTITLE0=Gaye, Marvin - I Heard It Through The Grapevine
TTITLE1=Five Satins, The - In The Still Of The Night
TTITLE2=King, Ben E. - Stand By Me
TTITLE3=Platters, The - Only You
TTITLE4=Temptations, The - My Girl
TTITLE5=Drifters, The - Up On The Roof
TTITLE6=Robinson, Smokey - Tracks Of My Tears
TTITLE7=Platters, The - Smoke Gets In Your Eyes
TTITLE8=Gaye, Marvin - I Heard It Through The Grapevine (Vocals)
TTITLE9=Five Satins, The - In The Still Of The Night (Vocals)
TTITLE10=King, Ben E. - Stand By Me (Vocals)
TTITLE11=Platters, The - Only You (Vocals)
TTITLE12=Temptations, The - My Girl (Vocals)
TTITLE13=Drifters, The - Up On The Roof (Vocals)
TTITLE14=Robinson, Smokey - Tracks Of My Tears (Vocals)
TTITLE15=Platters, The - Smoke Gets In Your Eyes (Vocals)
EXTD=
EXTT0=
EXTT1=
EXTT2=
EXTT3=
EXTT4=
EXTT5=
EXTT6=
EXTT7=
EXTT8=
EXTT9=
EXTT10=
EXTT11=
EXTT12=
EXTT13=
EXTT14=
EXTT15=
PLAYORDER=
